<svg version="1.1" id="Layer_1" xmlns="http://www.w3.org/2000/svg" xmlns:xlink="http://www.w3.org/1999/xlink" x="0px" y="0px"
	 width="100%" viewBox="0 0 470 492" enable-background="new 0 0 470 492" xml:space="preserve">
<path fill="#FFFFFF" opacity="1.000000" stroke="none" 
	d="
M316.000000,493.000000 
	C210.666672,493.000000 105.833336,493.000000 1.000000,493.000000 
	C1.000000,329.000000 1.000000,165.000000 1.000000,1.000000 
	C157.666672,1.000000 314.333344,1.000000 471.000000,1.000000 
	C471.000000,165.000000 471.000000,329.000000 471.000000,493.000000 
	C419.500000,493.000000 368.000000,493.000000 316.000000,493.000000 
M365.000153,249.500000 
	C365.000153,206.085754 365.000153,162.671494 365.000153,119.307907 
	C279.342773,119.307907 194.300095,119.307907 109.306915,119.307907 
	C109.306915,209.991104 109.306915,300.365814 109.306915,390.692078 
	C194.657104,390.692078 279.699768,390.692078 365.000153,390.692078 
	C365.000153,343.756348 365.000153,297.128174 365.000153,249.500000 
z"/>
<path fill="#464646" opacity="1.000000" stroke="none" 
	d="
M365.000153,250.000000 
	C365.000153,297.128174 365.000153,343.756348 365.000153,390.692078 
	C279.699768,390.692078 194.657104,390.692078 109.306915,390.692078 
	C109.306915,300.365814 109.306915,209.991104 109.306915,119.307907 
	C194.300095,119.307907 279.342773,119.307907 365.000153,119.307907 
	C365.000153,162.671494 365.000153,206.085754 365.000153,250.000000 
M304.927734,275.008484 
	C311.878754,275.003113 318.833435,274.862640 325.779114,275.052368 
	C329.002380,275.140442 330.152435,274.105286 330.062225,270.821381 
	C329.853271,263.214355 329.967163,255.598434 330.005554,247.100830 
	C329.980560,244.728653 329.955566,242.356476 329.999969,239.099335 
	C329.972717,236.728394 329.945496,234.357452 330.006714,231.075684 
	C330.008209,227.716751 330.009674,224.357803 330.172485,220.202484 
	C330.461823,217.657639 330.751190,215.112793 331.089233,212.139709 
	C324.557434,212.139709 318.782166,212.139709 312.073883,212.029373 
	C299.027557,212.011765 285.981201,211.994156 272.955688,211.098572 
	C274.502441,204.728897 276.049164,198.359222 278.022430,191.432770 
	C282.046875,188.380417 286.071320,185.328079 290.941101,182.151047 
	C300.629181,181.725021 310.317230,181.299011 320.933105,181.009689 
	C332.501892,181.009689 344.070679,181.009689 355.836456,181.009689 
	C355.836456,176.252441 355.836456,172.127029 355.963623,167.108994 
	C355.920929,164.406189 355.878235,161.703384 355.964172,158.108246 
	C355.921722,155.405533 355.879242,152.702820 355.965210,149.091721 
	C355.921478,145.727524 355.877716,142.363327 355.960815,138.074814 
	C355.917786,133.383255 355.874756,128.691711 355.958496,123.139938 
	C356.552307,119.651749 354.189941,119.990593 351.972931,119.992538 
	C328.509399,120.013107 305.045837,120.008217 281.582306,120.016876 
	C280.585266,120.017242 279.569336,119.968674 278.593872,120.131989 
	C244.402985,125.856178 216.818573,158.771729 216.342514,194.855927 
	C215.930054,200.585159 215.517609,206.314407 214.167923,212.018738 
	C210.444107,212.067505 206.720276,212.116272 202.123764,212.036774 
	C194.285889,213.054779 186.293243,213.415436 178.640030,215.217651 
	C158.099945,220.054474 140.607391,230.109131 129.458145,248.600494 
	C118.324242,267.066376 115.157097,287.461456 118.330307,308.645203 
	C119.416374,315.895630 122.238304,322.886047 124.270462,330.702698 
	C127.813683,336.212402 131.356888,341.722076 135.160248,347.830780 
	C139.782486,351.860321 144.404724,355.889862 149.388245,360.495667 
	C153.192856,362.487915 156.997452,364.480164 161.311920,366.920013 
	C167.203262,368.626709 173.094589,370.333435 179.595840,372.542389 
	C184.730667,372.970917 189.865494,373.399414 195.901627,373.958618 
	C200.264603,373.563080 204.627579,373.167511 209.780380,372.872131 
	C216.636169,370.913788 223.761703,369.603088 230.299103,366.880310 
	C253.432510,357.245178 267.546204,340.193848 271.672546,314.420441 
	C272.078918,301.316925 272.485260,288.213409 273.793121,275.081482 
	C276.192719,275.028564 278.592346,274.975677 281.905121,275.018646 
	C285.266876,274.989624 288.628601,274.960571 292.910248,275.015808 
	C296.603882,274.992218 300.297485,274.968658 304.927734,275.008484 
z"/>
<path fill="#FC5E02" opacity="1.000000" stroke="none" 
	d="
M208.990555,372.771973 
	C204.627579,373.167511 200.264603,373.563080 195.451019,373.474335 
	C197.783234,358.467438 200.491394,343.929871 203.392563,329.430939 
	C204.311523,324.838318 205.745697,320.348785 207.122650,315.537231 
	C211.618271,312.122070 215.083496,308.155823 215.428787,302.734711 
	C215.825287,296.509369 215.595398,290.205597 215.092789,283.979889 
	C214.882797,281.378845 213.268845,278.891205 212.694824,276.246185 
	C214.099564,275.743744 215.102707,275.347107 216.511993,274.900574 
	C230.607788,274.626862 244.297455,274.402954 258.047363,274.559540 
	C258.382416,276.050323 258.926117,277.170013 258.887665,278.269379 
	C258.669128,284.516022 258.311523,290.757782 258.000671,297.463501 
	C258.000092,299.088684 257.959869,300.253174 258.006165,301.414185 
	C258.520050,314.300629 253.580109,323.999268 242.911041,331.785309 
	C234.859894,337.660858 227.656281,345.018829 221.214722,352.675507 
	C216.225937,358.605347 213.000092,366.018311 208.990555,372.771973 
z"/>
<path fill="#FE8F22" opacity="1.000000" stroke="none" 
	d="
M216.690918,193.970505 
	C216.818573,158.771729 244.402985,125.856178 278.593872,120.131989 
	C279.569336,119.968674 280.585266,120.017242 281.582306,120.016876 
	C305.045837,120.008217 328.509399,120.013107 351.972931,119.992538 
	C354.189941,119.990593 356.552307,119.651749 355.532471,123.619980 
	C341.949493,128.611832 328.799072,133.142776 315.633362,137.628860 
	C306.600983,140.706543 297.540558,143.701706 288.507202,146.776505 
	C285.570190,147.776230 282.600159,148.738586 279.786835,150.027191 
	C276.088562,151.721130 272.463745,153.605148 268.938995,155.635986 
	C267.100861,156.695023 265.722534,158.986359 263.829926,159.438889 
	C256.883331,161.099884 251.946167,165.620377 246.785522,170.051987 
	C238.254044,177.378189 229.532578,184.484329 220.833054,191.612259 
	C219.621582,192.604889 218.079788,193.194382 216.690918,193.970505 
z"/>
<path fill="#FD8B1D" opacity="1.000000" stroke="none" 
	d="
M124.267143,329.995239 
	C122.238304,322.886047 119.416374,315.895630 118.330307,308.645203 
	C115.157097,287.461456 118.324242,267.066376 129.458145,248.600494 
	C140.607391,230.109131 158.099945,220.054474 178.640030,215.217651 
	C186.293243,213.415436 194.285889,213.054779 202.517273,212.437683 
	C198.956650,215.710602 194.954300,218.518921 191.058777,221.468338 
	C183.698547,227.041000 176.878311,233.541565 168.919769,238.039490 
	C162.855469,241.466827 158.215027,245.598206 153.594879,250.686813 
	C138.417114,267.403503 134.593903,288.429749 130.026810,309.228851 
	C128.744675,315.067841 128.450317,321.118835 127.358536,327.008728 
	C127.145905,328.155823 125.338791,329.007355 124.267143,329.995239 
z"/>
<path fill="#FE861F" opacity="1.000000" stroke="none" 
	d="
M216.516724,194.413208 
	C218.079788,193.194382 219.621582,192.604889 220.833054,191.612259 
	C229.532578,184.484329 238.254044,177.378189 246.785522,170.051987 
	C251.946167,165.620377 256.883331,161.099884 263.829926,159.438889 
	C265.722534,158.986359 267.100861,156.695023 268.938995,155.635986 
	C272.463745,153.605148 276.088562,151.721130 279.786835,150.027191 
	C282.600159,148.738586 285.570190,147.776230 288.507202,146.776505 
	C297.540558,143.701706 306.600983,140.706543 315.633362,137.628860 
	C328.799072,133.142776 341.949493,128.611832 355.469086,124.050095 
	C355.874756,128.691711 355.917786,133.383255 355.531738,138.587997 
	C351.952881,140.118530 348.792969,141.105804 345.655060,142.158493 
	C332.781891,146.477142 319.926666,150.849670 307.041290,155.131363 
	C301.387390,157.010086 295.317780,158.007645 290.069977,160.658493 
	C280.384033,165.551193 270.808899,170.843384 261.838959,176.929184 
	C249.802063,185.095840 238.267792,194.024841 226.771179,202.952881 
	C223.403427,205.568207 220.897003,209.292664 217.667755,212.613068 
	C216.886871,212.790375 216.434052,212.863388 215.888184,212.740692 
	C215.623199,212.297974 215.393204,212.130859 215.105148,212.043640 
	C215.517609,206.314407 215.930054,200.585159 216.516724,194.413208 
z"/>
<path fill="#FF8319" opacity="1.000000" stroke="none" 
	d="
M214.636536,212.031189 
	C215.393204,212.130859 215.623199,212.297974 215.888000,213.175232 
	C215.921204,215.534973 215.861542,217.264481 215.449432,219.001389 
	C211.398300,222.005463 207.699615,225.002121 203.662979,228.049683 
	C199.923462,230.711182 196.490753,233.282394 193.126099,235.939743 
	C182.578049,244.270386 170.240417,250.437012 162.402405,262.036774 
	C156.161560,271.272766 150.475037,280.673218 148.636841,292.066345 
	C146.518173,298.682190 144.615479,305.198883 143.039490,311.793701 
	C140.222488,323.581573 137.602478,335.416504 134.900116,347.231781 
	C131.356888,341.722076 127.813683,336.212402 124.268799,330.348969 
	C125.338791,329.007355 127.145905,328.155823 127.358536,327.008728 
	C128.450317,321.118835 128.744675,315.067841 130.026810,309.228851 
	C134.593903,288.429749 138.417114,267.403503 153.594879,250.686813 
	C158.215027,245.598206 162.855469,241.466827 168.919769,238.039490 
	C176.878311,233.541565 183.698547,227.041000 191.058777,221.468338 
	C194.954300,218.518921 198.956650,215.710602 202.953613,212.501816 
	C206.720276,212.116272 210.444107,212.067505 214.636536,212.031189 
z"/>
<path fill="#FE7210" opacity="1.000000" stroke="none" 
	d="
M160.802063,366.472412 
	C156.997452,364.480164 153.192856,362.487915 149.198975,359.757111 
	C149.339600,354.012115 149.669495,349.005646 150.162048,343.626709 
	C150.723373,340.484253 150.926712,337.669128 151.554047,334.951935 
	C154.488541,322.241394 158.384018,309.682159 160.278214,296.824615 
	C161.751953,286.821228 167.459900,279.274139 171.841354,270.962311 
	C175.675995,263.687866 182.460037,258.923340 189.157806,254.217911 
	C196.004196,249.408066 202.393448,243.951935 209.148605,239.005112 
	C211.070923,237.597412 213.571457,236.979324 215.875275,236.457916 
	C215.899643,240.944031 215.855560,244.971405 215.438843,248.999954 
	C214.103546,249.168945 212.958710,249.058075 212.207367,249.549194 
	C206.838959,253.058228 201.035385,256.133789 196.385483,260.442841 
	C191.950607,264.552673 188.744904,269.988892 184.692490,275.012268 
	C180.923492,278.388062 176.880905,281.165314 174.126968,284.894257 
	C169.370483,291.334778 169.323761,298.847229 171.228516,306.835724 
	C170.518433,309.993347 169.826508,312.705383 169.338333,315.453583 
	C167.181915,327.593109 165.049850,339.737274 162.982056,351.892151 
	C162.158066,356.735687 161.523087,361.611359 160.802063,366.472412 
z"/>
<path fill="#F85804" opacity="1.000000" stroke="none" 
	d="
M209.385468,372.822052 
	C213.000092,366.018311 216.225937,358.605347 221.214722,352.675507 
	C227.656281,345.018829 234.859894,337.660858 242.911041,331.785309 
	C253.580109,323.999268 258.520050,314.300629 258.006165,301.414185 
	C257.959869,300.253174 258.000092,299.088684 258.355164,297.523071 
	C259.497070,298.676239 260.305756,300.221588 261.066772,301.790039 
	C263.544434,306.896332 265.272247,312.570740 271.197205,315.039764 
	C267.546204,340.193848 253.432510,357.245178 230.299103,366.880310 
	C223.761703,369.603088 216.636169,370.913788 209.385468,372.822052 
z"/>
<path fill="#FD7D1B" opacity="1.000000" stroke="none" 
	d="
M217.995819,212.508789 
	C220.897003,209.292664 223.403427,205.568207 226.771179,202.952881 
	C238.267792,194.024841 249.802063,185.095840 261.838959,176.929184 
	C270.808899,170.843384 280.384033,165.551193 290.069977,160.658493 
	C295.317780,158.007645 301.387390,157.010086 307.041290,155.131363 
	C319.926666,150.849670 332.781891,146.477142 345.655060,142.158493 
	C348.792969,141.105804 351.952881,140.118530 355.468323,139.050156 
	C355.877716,142.363327 355.921478,145.727524 355.524048,149.553741 
	C341.870483,154.253250 328.651733,158.471100 315.447906,162.735245 
	C306.801300,165.527649 297.456299,167.107071 289.688141,171.476868 
	C272.305359,181.255157 254.407516,190.474945 239.523132,204.128403 
	C236.953690,206.485336 235.155029,209.682541 232.543625,212.590515 
	C227.389862,212.629227 222.692841,212.569000 217.995819,212.508789 
z"/>
<path fill="#FE7716" opacity="1.000000" stroke="none" 
	d="
M233.000336,212.491608 
	C235.155029,209.682541 236.953690,206.485336 239.523132,204.128403 
	C254.407516,190.474945 272.305359,181.255157 289.688141,171.476868 
	C297.456299,167.107071 306.801300,165.527649 315.447906,162.735245 
	C328.651733,158.471100 341.870483,154.253250 355.459839,150.007935 
	C355.879242,152.702820 355.921722,155.405533 355.500122,158.555634 
	C354.539062,159.022949 354.007660,158.933975 353.549927,159.078461 
	C333.893768,165.282913 314.219940,171.434372 294.634003,177.853790 
	C292.831757,178.444489 291.595062,180.760727 290.095734,182.275726 
	C286.071320,185.328079 282.046875,188.380417 277.449707,191.715988 
	C273.104919,193.910950 268.980560,195.349258 265.637512,197.837372 
	C259.514740,202.394379 253.853378,207.571335 247.542938,212.587219 
	C242.390945,212.620316 237.695633,212.555969 233.000336,212.491608 
z"/>
<path fill="#0B70B2" opacity="1.000000" stroke="none" 
	d="
M313.006897,212.139709 
	C318.782166,212.139709 324.557434,212.139709 331.089233,212.139709 
	C330.751190,215.112793 330.461823,217.657639 329.716736,220.605377 
	C327.612579,221.721786 325.758636,222.156204 324.348938,223.194016 
	C315.012970,230.067047 305.576111,236.826660 296.562836,244.106934 
	C289.385681,249.904129 282.795044,256.424316 275.856384,262.523834 
	C274.953522,263.317535 273.527100,263.515564 272.254517,263.527985 
	C272.227112,254.715988 272.288422,246.365509 272.692841,237.952698 
	C275.571442,236.468369 278.559753,235.507584 280.561584,233.542084 
	C288.002197,226.236511 295.729675,219.652466 306.158356,216.845840 
	C308.680695,216.167007 310.736542,213.754822 313.006897,212.139709 
z"/>
<path fill="#FD6205" opacity="1.000000" stroke="none" 
	d="
M206.944092,315.812073 
	C205.745697,320.348785 204.311523,324.838318 203.392563,329.430939 
	C200.491394,343.929871 197.783234,358.467438 195.000366,373.408997 
	C189.865494,373.399414 184.730667,372.970917 179.295319,371.838318 
	C179.569992,364.226471 179.826538,357.273651 180.794617,350.421387 
	C182.270660,339.973877 184.238953,329.595947 186.412781,319.161621 
	C194.153015,321.781494 200.563004,318.884247 206.944092,315.812073 
z"/>
<path fill="#FD690A" opacity="1.000000" stroke="none" 
	d="
M185.998215,319.188477 
	C184.238953,329.595947 182.270660,339.973877 180.794617,350.421387 
	C179.826538,357.273651 179.569992,364.226471 178.990356,371.587189 
	C173.094589,370.333435 167.203262,368.626709 161.056992,366.696228 
	C161.523087,361.611359 162.158066,356.735687 162.982056,351.892151 
	C165.049850,339.737274 167.181915,327.593109 169.338333,315.453583 
	C169.826508,312.705383 170.518433,309.993347 171.455017,307.110779 
	C174.660339,313.203461 180.157791,316.395111 185.998215,319.188477 
z"/>
<path fill="#0769AB" opacity="1.000000" stroke="none" 
	d="
M272.343170,263.989502 
	C273.527100,263.515564 274.953522,263.317535 275.856384,262.523834 
	C282.795044,256.424316 289.385681,249.904129 296.562836,244.106934 
	C305.576111,236.826660 315.012970,230.067047 324.348938,223.194016 
	C325.758636,222.156204 327.612579,221.721786 329.636078,221.003571 
	C330.009674,224.357803 330.008209,227.716751 329.584564,231.534454 
	C326.843384,233.098190 324.212341,233.812286 322.257233,235.373093 
	C311.578003,243.898575 300.786499,252.322388 290.633087,261.448090 
	C286.622314,265.052856 284.159576,270.379944 280.991943,274.922760 
	C278.592346,274.975677 276.192719,275.028564 273.155579,274.981689 
	C272.242432,274.762573 272.020233,274.578705 271.931702,273.852448 
	C272.122345,270.246216 272.232758,267.117859 272.343170,263.989502 
z"/>
<path fill="#1974AE" opacity="1.000000" stroke="none" 
	d="
M312.540405,212.084534 
	C310.736542,213.754822 308.680695,216.167007 306.158356,216.845840 
	C295.729675,219.652466 288.002197,226.236511 280.561584,233.542084 
	C278.559753,235.507584 275.571442,236.468369 272.596832,237.490387 
	C272.094696,228.989059 272.031708,220.887680 272.071533,212.592590 
	C272.392639,212.194611 272.646149,212.053833 272.934875,211.976562 
	C285.981201,211.994156 299.027557,212.011765 312.540405,212.084534 
z"/>
<path fill="#FE7210" opacity="1.000000" stroke="none" 
	d="
M290.518433,182.213379 
	C291.595062,180.760727 292.831757,178.444489 294.634003,177.853790 
	C314.219940,171.434372 333.893768,165.282913 353.549927,159.078461 
	C354.007660,158.933975 354.539062,159.022949 355.435852,159.001801 
	C355.878235,161.703384 355.920929,164.406189 355.501587,167.556519 
	C344.815826,171.106155 334.562561,174.116852 324.397919,177.401733 
	C322.733643,177.939590 321.459686,179.685455 320.005310,180.872986 
	C310.317230,181.299011 300.629181,181.725021 290.518433,182.213379 
z"/>
<path fill="#F05C06" opacity="1.000000" stroke="none" 
	d="
M271.851471,274.330322 
	C272.020233,274.578705 272.242432,274.762573 272.704834,274.995911 
	C272.485260,288.213409 272.078918,301.316925 271.434875,314.730103 
	C265.272247,312.570740 263.544434,306.896332 261.066772,301.790039 
	C260.305756,300.221588 259.497070,298.676239 258.355713,297.060791 
	C258.311523,290.757782 258.669128,284.516022 258.887665,278.269379 
	C258.926117,277.170013 258.382416,276.050323 258.507599,274.489319 
	C263.222229,274.135864 267.536865,274.233093 271.851471,274.330322 
z"/>
<path fill="#FE7716" opacity="1.000000" stroke="none" 
	d="
M149.999390,343.999207 
	C149.669495,349.005646 149.339600,354.012115 149.018341,359.468994 
	C144.404724,355.889862 139.782486,351.860321 135.030182,347.531281 
	C137.602478,335.416504 140.222488,323.581573 143.039490,311.793701 
	C144.615479,305.198883 146.518173,298.682190 148.636612,292.526428 
	C149.047974,299.000183 149.761658,305.163147 148.995407,311.136200 
	C147.711655,321.143250 146.666260,331.082367 148.075943,341.121704 
	C148.220413,342.150604 149.334976,343.043304 149.999390,343.999207 
z"/>
<path fill="#07619E" opacity="1.000000" stroke="none" 
	d="
M281.448547,274.970703 
	C284.159576,270.379944 286.622314,265.052856 290.633087,261.448090 
	C300.786499,252.322388 311.578003,243.898575 322.257233,235.373093 
	C324.212341,233.812286 326.843384,233.098190 329.540344,231.989868 
	C329.945496,234.357452 329.972717,236.728394 329.585938,239.545868 
	C328.065796,240.243851 326.643280,240.140030 325.901581,240.800613 
	C316.544617,249.134552 307.158875,257.445312 298.083649,266.080597 
	C295.544342,268.496796 293.994232,271.952637 291.990356,274.931580 
	C288.628601,274.960571 285.266876,274.989624 281.448547,274.970703 
z"/>
<path fill="#0C507F" opacity="1.000000" stroke="none" 
	d="
M329.950195,247.986145 
	C329.967163,255.598434 329.853271,263.214355 330.062225,270.821381 
	C330.152435,274.105286 329.002380,275.140442 325.779114,275.052368 
	C318.833435,274.862640 311.878754,275.003113 304.501617,274.630310 
	C309.105774,267.612732 313.767181,260.640533 319.326385,254.478271 
	C321.991608,251.523926 326.355560,250.102066 329.950195,247.986145 
z"/>
<path fill="#0A598F" opacity="1.000000" stroke="none" 
	d="
M329.977844,247.543488 
	C326.355560,250.102066 321.991608,251.523926 319.326385,254.478271 
	C313.767181,260.640533 309.105774,267.612732 304.033325,274.598633 
	C300.297485,274.968658 296.603882,274.992218 292.450317,274.973694 
	C293.994232,271.952637 295.544342,268.496796 298.083649,266.080597 
	C307.158875,257.445312 316.544617,249.134552 325.901581,240.800613 
	C326.643280,240.140030 328.065796,240.243851 329.551239,239.988342 
	C329.955566,242.356476 329.980560,244.728653 329.977844,247.543488 
z"/>
<path fill="#FE7210" opacity="1.000000" stroke="none" 
	d="
M272.945282,211.537567 
	C272.646149,212.053833 272.392639,212.194611 271.603302,212.594086 
	C263.354706,212.689484 255.677170,212.589645 247.999634,212.489807 
	C253.853378,207.571335 259.514740,202.394379 265.637512,197.837372 
	C268.980560,195.349258 273.104919,193.910950 277.236420,191.994370 
	C276.049164,198.359222 274.502441,204.728897 272.945282,211.537567 
z"/>
<path fill="#FD690A" opacity="1.000000" stroke="none" 
	d="
M320.469208,180.941345 
	C321.459686,179.685455 322.733643,177.939590 324.397919,177.401733 
	C334.562561,174.116852 344.815826,171.106155 355.437988,168.002838 
	C355.836456,172.127029 355.836456,176.252441 355.836456,181.009689 
	C344.070679,181.009689 332.501892,181.009689 320.469208,180.941345 
z"/>
<path fill="#464646" opacity="1.000000" stroke="none" 
	d="
M247.542938,212.587234 
	C255.677170,212.589645 263.354706,212.689484 271.500488,212.787811 
	C272.031708,220.887680 272.094696,228.989059 272.253693,237.552734 
	C272.288422,246.365509 272.227112,254.715988 272.254517,263.527985 
	C272.232758,267.117859 272.122345,270.246216 271.931702,273.852448 
	C267.536865,274.233093 263.222229,274.135864 258.447388,274.108856 
	C244.297455,274.402954 230.607788,274.626862 216.466003,274.437500 
	C215.946411,265.682404 215.878937,257.340576 215.811478,248.998764 
	C215.855560,244.971405 215.899643,240.944031 215.942566,236.001297 
	C215.895065,231.391891 215.848724,227.697845 215.871368,223.590057 
	C215.894211,221.782181 215.848053,220.388092 215.801880,218.993988 
	C215.861542,217.264481 215.921204,215.534973 215.981049,213.370941 
	C216.434052,212.863388 216.886871,212.790375 217.667755,212.613068 
	C222.692841,212.569000 227.389862,212.629227 232.543610,212.590515 
	C237.695633,212.555969 242.390945,212.620316 247.542938,212.587234 
z"/>
<path fill="#484645" opacity="1.000000" stroke="none" 
	d="
M186.412781,319.161621 
	C180.157791,316.395111 174.660339,313.203461 171.566971,306.681824 
	C169.323761,298.847229 169.370483,291.334778 174.126968,284.894257 
	C176.880905,281.165314 180.923492,278.388062 185.092499,275.010925 
	C194.807785,272.235535 203.564682,274.045380 212.293228,276.351990 
	C213.268845,278.891205 214.882797,281.378845 215.092789,283.979889 
	C215.595398,290.205597 215.825287,296.509369 215.428787,302.734711 
	C215.083496,308.155823 211.618271,312.122070 207.122650,315.537231 
	C200.563004,318.884247 194.153015,321.781494 186.412781,319.161621 
z"/>
<path fill="#FD690A" opacity="1.000000" stroke="none" 
	d="
M212.694824,276.246185 
	C203.564682,274.045380 194.807785,272.235535 185.398865,274.840698 
	C188.744904,269.988892 191.950607,264.552673 196.385483,260.442841 
	C201.035385,256.133789 206.838959,253.058228 212.207367,249.549194 
	C212.958710,249.058075 214.103546,249.168945 215.438843,248.999954 
	C215.878937,257.340576 215.946411,265.682404 216.059875,274.487335 
	C215.102707,275.347107 214.099564,275.743744 212.694824,276.246185 
z"/>
<path fill="#FF7A14" opacity="1.000000" stroke="none" 
	d="
M215.802368,224.003815 
	C215.848724,227.697845 215.895065,231.391891 215.874115,235.542542 
	C213.571457,236.979324 211.070923,237.597412 209.148605,239.005112 
	C202.393448,243.951935 196.004196,249.408066 189.157806,254.217911 
	C182.460037,258.923340 175.675995,263.687866 171.841354,270.962311 
	C167.459900,279.274139 161.751953,286.821228 160.278214,296.824615 
	C158.384018,309.682159 154.488541,322.241394 151.554047,334.951935 
	C150.926712,337.669128 150.723373,340.484253 150.162048,343.626709 
	C149.334976,343.043304 148.220413,342.150604 148.075943,341.121704 
	C146.666260,331.082367 147.711655,321.143250 148.995407,311.136200 
	C149.761658,305.163147 149.047974,299.000183 148.999786,292.462524 
	C150.475037,280.673218 156.161560,271.272766 162.402405,262.036774 
	C170.240417,250.437012 182.578049,244.270386 193.126099,235.939743 
	C196.490753,233.282394 199.923462,230.711182 204.024170,228.013199 
	C208.416336,226.618500 212.109360,225.311157 215.802368,224.003815 
z"/>
<path fill="#FD7D1B" opacity="1.000000" stroke="none" 
	d="
M215.871368,223.590057 
	C212.109360,225.311157 208.416336,226.618500 204.362122,227.962311 
	C207.699615,225.002121 211.398300,222.005463 215.449432,219.001389 
	C215.848053,220.388092 215.894211,221.782181 215.871368,223.590057 
z"/>
</svg>